<svg xmlns="http://www.w3.org/2000/svg" viewBox="0 0 32 32" width="32" height="32">
  <path fill="#FF9900" d="M9.5 19.5l-1.5-.5V16l1.5-.5 1 .5.5 1.5-.5 1.5zM20 20l2-.5.5-1.5-.5-1.5-2-.5-1.5.5L18 18l.5 1.5z"/>
  <path fill="#FF9900" d="M10 12.5c0-3 2.5-5.5 6-5.5 2.5 0 4.5 1.3 5.5 3.2.5-.2 1-.2 1.5-.2 2.5 0 4.5 2 4.5 4.5 0 2-1.3 3.7-3 4.3M10 12.5c-.5.2-1 .2-1.5.2C6 12.7 4 14.7 4 17.2c0 2.3 1.7 4.1 4 4.5"/>
  <path fill="#FF9900" d="M6 25.5l4-2.5M26 25.5l-4-2.5M16 26v-3"/>
  <path stroke="#FF9900" strokeWidth="1.5" fill="none" d="M9 23c2 1.5 4.5 2.5 7 2.5s5-1 7-2.5"/>
</svg>
