<svg xmlns="http://www.w3.org/2000/svg" viewBox="0 0 32 32" width="32" height="32">
  <path fill="#1572B6" d="M5 3h22l-2 22.39L16 29l-9-3.6L5 3z"/>
  <path fill="#33A9DC" d="M16 27.4l7.27-2.91 1.71-19.49H16v22.4z"/>
  <path fill="#fff" d="M16 13.5H11.4l-.17-1.9H16V8.63H8.26l.45 4.87H16V13.5zm0 7.43v-3.34h-.01l-3.51-1.08-.23-2.49H9.5l.45 5.02 5.99 1.89H16z"/>
  <path fill="#EBEBEB" d="M16 13.5v2h3.54l-.33 4.09-3.21.97v3.35l6.01-1.86.04-.5.75-8.05H16zM16 8.63v2.97h6.69l.06-.65.14-1.66.07-.66H16z"/>
</svg>
