<svg xmlns="http://www.w3.org/2000/svg" viewBox="0 0 32 32" width="32" height="32">
  <path fill="#EA4335" d="M16 6l4 4h-2.5A6.5 6.5 0 009.5 16h-3A9.5 9.5 0 0116 6z"/>
  <path fill="#4285F4" d="M22.5 10H16l4 4h2.5a3.5 3.5 0 013.5 3.5H29a7 7 0 00-6.5-7.5z"/>
  <path fill="#34A853" d="M25.5 17.5h-3a6.5 6.5 0 01-6.5 5.5v3a9.5 9.5 0 009.5-8.5z"/>
  <path fill="#FBBC05" d="M9.5 16a6.5 6.5 0 006.5 7v-3a3.5 3.5 0 01-3.5-3.5h-3l-3.5-2a9.3 9.3 0 000 2z"/>
  <circle cx="16" cy="16" r="4" fill="#4285F4"/>
</svg>
