<svg xmlns="http://www.w3.org/2000/svg" viewBox="0 0 32 32" width="32" height="32">
  <path fill="#2088FF" d="M16 2C8.3 2 2 8.3 2 16c0 6.2 4 11.5 9.5 13.4.7.1 1-.3 1-.7v-2.5c-3.9.8-4.7-1.9-4.7-1.9-.6-1.6-1.5-2-1.5-2-1.2-.8.1-.8.1-.8 1.4.1 2.1 1.4 2.1 1.4 1.2 2.1 3.2 1.5 4 1.1.1-.9.5-1.5.9-1.8-3.1-.4-6.4-1.6-6.4-7 0-1.5.5-2.8 1.4-3.8-.1-.4-.6-1.8.1-3.7 0 0 1.1-.4 3.7 1.4 1.1-.3 2.2-.5 3.3-.5s2.2.2 3.3.5c2.6-1.7 3.7-1.4 3.7-1.4.7 1.9.3 3.3.1 3.7.9 1 1.4 2.3 1.4 3.8 0 5.5-3.3 6.7-6.5 7 .5.4 1 1.3 1 2.6v3.9c0 .4.3.8 1 .7C26 27.5 30 22.2 30 16 30 8.3 23.7 2 16 2z"/>
</svg>
