<svg xmlns="http://www.w3.org/2000/svg" viewBox="0 0 32 32" width="32" height="32">
  <path fill="#00ADD8" d="M5 13.5c-.3 0-.5-.2-.5-.5v-1c0-.3.2-.5.5-.5h22c.3 0 .5.2.5.5v1c0 .3-.2.5-.5.5H5zm0 3.5c-.3 0-.5-.2-.5-.5v-1c0-.3.2-.5.5-.5h22c.3 0 .5.2.5.5v1c0 .3-.2.5-.5.5H5z"/>
  <circle cx="9" cy="14" r="1.5" fill="#00ADD8"/>
  <circle cx="23" cy="14" r="1.5" fill="#00ADD8"/>
  <path fill="#00ADD8" d="M13 19c0 1.7 1.3 3 3 3s3-1.3 3-3h-2a1 1 0 01-2 0h-2z"/>
  <path stroke="#00ADD8" strokeWidth="1" fill="none" d="M8 11.5s-.5-1.5 0-3 2-2.5 3-2.5M24 11.5s.5-1.5 0-3-2-2.5-3-2.5"/>
</svg>
