<svg xmlns="http://www.w3.org/2000/svg" viewBox="0 0 32 32" width="32" height="32">
  <rect width="32" height="32" rx="3" fill="#F7DF1E"/>
  <path fill="#323330" d="M9.11 26.69l2.26-1.37c.44.78.84 1.44 1.8 1.44.92 0 1.5-.36 1.5-1.76V15.5h2.78v9.56c0 2.9-1.7 4.22-4.18 4.22-2.24 0-3.54-1.16-4.16-2.59zm9.25-.47l2.26-1.38c.6.97 1.37 1.68 2.74 1.68 1.15 0 1.89-.58 1.89-1.37 0-.95-.75-1.29-2.03-1.84l-.7-.3c-2.01-.86-3.35-1.93-3.35-4.2 0-2.09 1.59-3.68 4.08-3.68 1.77 0 3.05.61 3.96 2.23l-2.17 1.39c-.48-.86-.99-1.19-1.79-1.19-.81 0-1.33.52-1.33 1.19 0 .83.52 1.16 1.71 1.67l.7.3c2.37 1.02 3.71 2.05 3.71 4.38 0 2.51-1.97 3.88-4.62 3.88-2.59 0-4.27-1.23-5.06-2.86z"/>
</svg>
