<svg xmlns="http://www.w3.org/2000/svg" viewBox="0 0 32 32" width="32" height="32">
  <path fill="#F89820" d="M13 21.5s-1.5.9.9 1.2c2.9.3 4.4.3 7.6-.3 0 0 .8.5 2 1-7.2 3-16.3-.4-10.5-1.9zM12.1 18.3s-1.7 1.3 1 1.5c3.4.4 6.1.4 10.7-.5 0 0 .6.6 1.5.9-9.5 2.8-20 .3-13.2-1.9z"/>
  <path fill="#EA2D2E" d="M18.3 11.5c1.9 2.2-.5 4.2-.5 4.2s4.9-2.5 2.6-5.6c-2.1-3-3.7-4.5 5-9.6 0 0-13.6 3.4-7.1 11z"/>
  <path fill="#F89820" d="M25.8 24.2s1.1.9-1.2 1.6c-4.5 1.3-18.7 1.7-22.7 0-1.4-.6 1.3-1.5 2.1-1.7.9-.2 1.4-.2 1.4-.2-1.6-1.1-10.2 2.2-4.4 3.1 15.9 2.6 29-1.2 24.8-2.8zM13.7 14.9s-7.4 1.7-2.6 2.4c2 .3 6 .2 9.7-.1 3-.3 6.1-.9 6.1-.9s-1.1.5-1.8.9c-7.4 1.9-21.7 1-17.6-.9 3.5-1.6 6.2-1.4 6.2-1.4z"/>
  <path fill="#EA2D2E" d="M20.1 2s4.2 4.2-4 10.7c-6.6 5.2-1.5 8.2 0 11.6-3.9-3.5-6.7-6.5-4.8-9.4 2.8-4.2 10.5-6.2 8.8-12.9z"/>
</svg>
