<svg xmlns="http://www.w3.org/2000/svg" viewBox="0 0 32 32" width="32" height="32">
  <path fill="#FCC624" d="M16 2c-2 0-3.5 2.5-3.5 7 0 2 .5 4 1 5.5C10 15.5 8 17.5 8 20c0 2 1 3.5 2.5 4.5-.5.5-1 1.5-1 2.5s.5 1.5 1 2l.5.5H21l.5-.5c.5-.5 1-1 1-2s-.5-2-1-2.5C23 23.5 24 22 24 20c0-2.5-2-4.5-5.5-5.5.5-1.5 1-3.5 1-5.5C19.5 4.5 18 2 16 2z"/>
  <circle cx="14" cy="11" r="1" fill="#333"/>
  <circle cx="18" cy="11" r="1" fill="#333"/>
  <path stroke="#333" strokeWidth="1" fill="none" d="M14 15s.5 1.5 2 1.5 2-1.5 2-1.5"/>
</svg>
