<svg xmlns="http://www.w3.org/2000/svg" viewBox="0 0 32 32" width="32" height="32">
  <path fill="#10A37F" d="M28.1 12.8a7.7 7.7 0 00-.5-6.3A8 8 0 0019.9 3a7.7 7.7 0 00-5.8 2.7 7.7 7.7 0 00-6.2 3.7 8 8 0 001 9.4 7.7 7.7 0 00.5 6.3 8 8 0 007.7 3.5 7.7 7.7 0 005.8-2.7 7.7 7.7 0 006.2-3.7 8 8 0 00-1-9.4zM19 24.4a5.4 5.4 0 01-3.5-1.3l.2-.1 5.8-3.4a.9.9 0 00.5-.8v-8.3l2.5 1.4v6.8A5.4 5.4 0 0119 24.4zm-11.6-5A5.4 5.4 0 017 15c0-1.3.5-2.5 1.2-3.4v6.8c0 .3.2.6.5.8l5.8 3.4-.2.1-2.5-1.4a5.4 5.4 0 01-4.4-2.3zM6.6 10.5l2.5 1.4V18l-2.5-1.4V10.5zm10.9 9.5l-2.5-1.4V12l2.5 1.4v6.6zm2.2-9.5v-1.3A5.4 5.4 0 0123 13v.1l-2.5 1.4V12a.9.9 0 00-.4-.8l-5.8-3.3.2-.1 2.5 1.4 2.7 1.8zm-9.6 0L13 8.5l2.5-1.4L18 8.5v1.3L15.5 11l-2.5-1.4V10.5h-2.9z"/>
</svg>
