<svg xmlns="http://www.w3.org/2000/svg" viewBox="0 0 32 32" width="32" height="32">
  <path fill="#336791" d="M23.5 3.5A11 11 0 0016 6a11 11 0 00-7.5-2.5C5 3.5 3 7 3 10s2 6.5 5 7c.4.1.8.1 1 0v6.5c0 1 .5 2 1.5 2H21c1 0 1.5-1 1.5-2V17c.3.1.7.1 1 0 3-.5 5-3.5 5-7s-2-6.5-5-6.5z"/>
  <path fill="#fff" d="M16 8c-1 0-2 .5-2.5 1.5-.5 1-.5 2.5 0 3.5.5 1 1.5 1.5 2.5 1.5s2-.5 2.5-1.5c.5-1 .5-2.5 0-3.5C18 8.5 17 8 16 8z"/>
  <circle cx="16" cy="11" r="1" fill="#336791"/>
  <path fill="#fff" d="M10 16.5v4.5h2v-4c0-.5.5-1 1-1h6c.5 0 1 .5 1 1v4h2V17h-1v-3.5c-1 .7-2 1-3 1s-2-.3-3-1V17H10v-.5z"/>
</svg>
