<svg xmlns="http://www.w3.org/2000/svg" viewBox="0 0 32 32" width="32" height="32">
  <ellipse cx="16" cy="22" rx="11" ry="4" fill="#A41E11"/>
  <ellipse cx="16" cy="22" rx="11" ry="4" fill="none" stroke="#DC382D" strokeWidth=".5"/>
  <path fill="#DC382D" d="M5 16v6c0 2.2 4.9 4 11 4s11-1.8 11-4v-6c0 2.2-4.9 4-11 4S5 18.2 5 16z"/>
  <ellipse cx="16" cy="16" rx="11" ry="4" fill="#DC382D"/>
  <path fill="#DC382D" d="M5 10v6c0 2.2 4.9 4 11 4s11-1.8 11-4v-6c0 2.2-4.9 4-11 4S5 12.2 5 10z"/>
  <ellipse cx="16" cy="10" rx="11" ry="4" fill="#DC382D"/>
  <path fill="#FF6B6B" d="M12 7.5l2.5 1.5 1-1.5 1 1.5 2.5-1.5-1.5 2.5 2 .5-2.5 1-1 1.5-1-1.5-2.5-1 2-.5z"/>
</svg>
