<svg xmlns="http://www.w3.org/2000/svg" viewBox="0 0 32 32" width="32" height="32">
  <path fill="#764ABC" d="M20.53 21.67a3.2 3.2 0 002.68-1.25 3.17 3.17 0 00.46-2.87 12.23 12.23 0 00-1.53-3.46 12.5 12.5 0 01-1.18-2.61c-.33-1.26-.06-2.2.81-2.76a2.89 2.89 0 011.38-.4 3.2 3.2 0 001.7-.53l.07-.05.01-.07a3.23 3.23 0 00-.91-2.55 3.34 3.34 0 00-2.56-.97 3.18 3.18 0 00-2.68 1.25 3.17 3.17 0 00-.46 2.87c.3 1.13.84 2.27 1.53 3.46a12.5 12.5 0 011.18 2.61c.33 1.26.06 2.2-.81 2.76a2.89 2.89 0 01-1.38.4 3.2 3.2 0 00-1.7.53l-.07.05-.01.07a3.23 3.23 0 00.91 2.55 3.34 3.34 0 002.56.97zm-9.06-1.34c.38.66.99 1.11 1.8 1.3a3.17 3.17 0 002.92-.83 3.22 3.22 0 00.66-2.92 12.23 12.23 0 00-1.95-3.2 12.5 12.5 0 01-1.6-2.38c-.6-1.17-.65-2.13-.14-2.84a2.89 2.89 0 011.16-.82c.63-.25 1.12-.65 1.43-1.17l.04-.07-.03-.07a3.23 3.23 0 00-1.87-1.94 3.34 3.34 0 00-2.73.09A3.18 3.18 0 009.79 6.8a3.17 3.17 0 00-.66 2.92c.41 1.09 1.1 2.13 1.95 3.2a12.5 12.5 0 011.6 2.38c.6 1.17.65 2.13.14 2.84a2.89 2.89 0 01-1.16.82c-.63.25-1.12.65-1.43 1.17l-.04.07.03.07c.21.4.47.73.82 1.02h-.03z"/>
</svg>
