<svg xmlns="http://www.w3.org/2000/svg" viewBox="0 0 32 32" width="32" height="32">
  <path fill="#FF3E00" d="M28.3 6.6C25.7 2.5 20.2.9 16.1 3.5l-8.5 5.2c-1.9 1.2-3.2 3-3.7 5.1-.4 1.7-.2 3.5.6 5a6.7 6.7 0 00-1 2.6c-.5 2.1.1 4.3 1.5 5.9 2.6 3 7.1 4 10.9 2.4l8.4-5.2c1.9-1.2 3.2-3 3.7-5.1.4-1.7.2-3.5-.6-5a7 7 0 001-2.6c.5-2.1-.1-4.3-1.5-5.9v-.3z"/>
  <path fill="#fff" d="M14.2 25.7c-2.2.6-4.5-.4-5.5-2.3a4 4 0 01-.4-3 4 4 0 01.1-.5l.2-.6.5.4c1.1.8 2.4 1.3 3.8 1.5l.4.1-.1.3a1.3 1.3 0 00.8 1.6c.5.1 1-.1 1.3-.5l8.4-5.2a1.3 1.3 0 00.4-1.7 1.3 1.3 0 00-1.7-.4l-3.1 1.9a4.1 4.1 0 01-4.4 0 4 4 0 01-1.4-5.4 3.8 3.8 0 011.6-1.5l8.5-5.2c2.2-1.3 5-.6 6.3 1.6.8 1.4.9 3 .3 4.4l-.2.5-.5-.4c-1.1-.8-2.4-1.3-3.8-1.5l-.4-.1.1-.3a1.3 1.3 0 00-.8-1.6c-.5-.1-1 .1-1.3.5l-8.4 5.2a1.3 1.3 0 00-.4 1.7 1.3 1.3 0 001.7.4l3.1-1.9a4.1 4.1 0 014.4 0 4 4 0 011.4 5.4 3.8 3.8 0 01-1.6 1.5l-8.5 5.2a3.9 3.9 0 01-1.8.5z"/>
</svg>
