<svg xmlns="http://www.w3.org/2000/svg" viewBox="0 0 32 32" width="32" height="32">
  <path fill="#06B6D4" d="M16 7c-3.2 0-5.2 1.6-6 4.8 1.2-1.6 2.6-2.2 4.2-1.8.91.23 1.56.9 2.28 1.64C17.74 12.9 19.2 14.4 22 14.4c3.2 0 5.2-1.6 6-4.8-1.2 1.6-2.6 2.2-4.2 1.8-.91-.23-1.56-.9-2.28-1.64C20.26 8.5 18.8 7 16 7zm-6 9.6c-3.2 0-5.2 1.6-6 4.8 1.2-1.6 2.6-2.2 4.2-1.8.91.23 1.56.9 2.28 1.64C11.74 22.5 13.2 24 16 24c3.2 0 5.2-1.6 6-4.8-1.2 1.6-2.6 2.2-4.2 1.8-.91-.23-1.56-.9-2.28-1.64C14.26 18.1 12.8 16.6 10 16.6z"/>
</svg>
