<svg xmlns="http://www.w3.org/2000/svg" viewBox="0 0 32 32" width="32" height="32">
  <rect width="32" height="32" rx="3" fill="#3178C6"/>
  <path fill="#fff" d="M18.65 22.29v2.58c.42.22.92.38 1.5.5a8.5 8.5 0 001.76.17c.6 0 1.17-.06 1.7-.19a3.97 3.97 0 001.37-.6 2.86 2.86 0 00.91-1.06c.22-.44.33-.96.33-1.57 0-.45-.07-.85-.2-1.19a2.7 2.7 0 00-.58-.9 4.1 4.1 0 00-.91-.7 9.4 9.4 0 00-1.2-.58l-.97-.38a5.4 5.4 0 01-.64-.3 1.67 1.67 0 01-.4-.32.64.64 0 01-.14-.42c0-.15.04-.29.11-.4a.91.91 0 01.32-.29 1.6 1.6 0 01.5-.17c.2-.04.42-.06.68-.06a4.5 4.5 0 011.5.27c.24.08.47.18.68.31V15.5a5.9 5.9 0 00-1.3-.35 9.4 9.4 0 00-1.56-.12c-.58 0-1.12.07-1.63.2a3.9 3.9 0 00-1.32.6 2.83 2.83 0 00-.88 1.04c-.21.42-.32.93-.32 1.52 0 .75.21 1.38.62 1.88.41.5 1.04.93 1.88 1.27l1 .4c.26.1.48.21.66.32.18.11.32.23.41.37.1.14.14.3.14.5 0 .15-.04.29-.12.42a.97.97 0 01-.34.31c-.15.09-.33.16-.56.2a3.7 3.7 0 01-.77.08c-.52 0-1.04-.09-1.56-.27a5.2 5.2 0 01-1.43-.73zM12.9 16.7H16v-2.38H7.5V16.7h3.08v9.98h2.32V16.7z"/>
</svg>
